<svg width="20" height="14" viewBox="0 0 20 14" fill="none" xmlns="http://www.w3.org/2000/svg">
<path d="M19 10V1M10 7H1M14 1H1M10 13H1M16.5 13C17.163 13 17.7989 12.7366 18.2678 12.2678C18.7366 11.7989 19 11.163 19 10.5C19 9.83696 18.7366 9.20107 18.2678 8.73223C17.7989 8.26339 17.163 8 16.5 8C15.837 8 15.2011 8.26339 14.7322 8.73223C14.2634 9.20107 14 9.83696 14 10.5C14 11.163 14.2634 11.7989 14.7322 12.2678C15.2011 12.7366 15.837 13 16.5 13Z" stroke="black" stroke-width="2" stroke-linecap="round" stroke-linejoin="round"/>
</svg>
